<svg width="24" height="24" viewBox="0 0 24 24" fill="none" xmlns="http://www.w3.org/2000/svg">
<path d="M16.4996 5.20223C16.4996 2.76029 15.3595 1.00354 13.4932 1.00354C12.467 1.00354 12.1149 1.60491 11.747 3.00312C11.6719 3.29197 11.635 3.43261 11.596 3.57121C11.495 3.92995 11.3192 4.5407 11.069 5.40222C11.0623 5.4253 11.0524 5.44705 11.0396 5.46713L8.17281 9.95279C7.49476 11.0138 6.49429 11.8293 5.31841 12.2795L4.84513 12.4607C3.5984 12.938 2.87457 14.2417 3.1287 15.5524L3.53319 17.6385C3.77462 18.8836 4.71828 19.8744 5.9501 20.1763L13.5778 22.0459C16.109 22.6663 18.6674 21.1314 19.3113 18.606L20.7262 13.0569C21.1697 11.3176 20.1192 9.54808 18.3799 9.10461C18.1175 9.03771 17.8478 9.00386 17.5769 9.00386H15.7536C16.2497 7.37097 16.4996 6.11118 16.4996 5.20223ZM4.60127 15.2669C4.48576 14.6711 4.81477 14.0785 5.38147 13.8615L5.85475 13.6803C7.33036 13.1153 8.58585 12.092 9.43674 10.7606L12.3035 6.27489C12.3935 6.13401 12.4629 5.98095 12.5095 5.82038C12.7608 4.95537 12.9375 4.34138 13.0399 3.97749C13.083 3.82424 13.1239 3.66879 13.1976 3.38482C13.3875 2.66312 13.4809 2.50354 13.4932 2.50354C14.3609 2.50354 14.9996 3.48761 14.9996 5.20223C14.9996 6.08671 14.6738 7.53767 14.0158 9.5173C13.8544 10.0029 14.2158 10.5038 14.7275 10.5038H17.5769C17.7228 10.5038 17.868 10.522 18.0093 10.5582C18.9459 10.797 19.5115 11.7497 19.2727 12.6863L17.8578 18.2353C17.4172 19.9632 15.6668 21.0135 13.9349 20.589L6.30718 18.7194C5.64389 18.5569 5.13577 18.0233 5.00577 17.3528L4.60127 15.2669Z" fill="white"/>
</svg>
